<svg width="64" height="64" viewBox="0 0 64 64" fill="none" xmlns="http://www.w3.org/2000/svg">
<g id="increase" clip-path="url(#clip0_15_155)">
<g id="Group">
<path id="Vector" d="M11.4301 27.4401C10.9992 26.8084 10.0677 26.8084 9.63669 27.4401L1.12873 39.9135C0.637226 40.6339 1.15323 41.6105 2.02536 41.6105H5.41627C6.01565 41.6105 6.50166 42.0964 6.50166 42.6959V61.9773C6.50166 62.5767 6.98754 63.0627 7.58704 63.0627H13.4799C14.0792 63.0627 14.5652 62.5769 14.5652 61.9773V42.6959C14.5652 42.0965 15.0512 41.6105 15.6506 41.6105H19.0415C19.9137 41.6105 20.4297 40.634 19.9382 39.9135L11.4301 27.4401Z" stroke="#2668E9" stroke-width="2" stroke-miterlimit="10" stroke-linecap="round" stroke-linejoin="round"/>
<path id="Vector_2" d="M38.6125 9.34168L33.3756 1.66398C32.7149 0.695341 31.2866 0.695341 30.6258 1.66398L17.5806 20.7894C16.827 21.8941 17.6182 23.3914 18.9553 23.3914H24.1546C25.0737 23.3914 25.8189 24.1365 25.8189 25.0556C25.8189 26.4391 25.8189 60.1877 25.8189 61.3983C25.8189 62.3175 26.564 63.0625 27.483 63.0625H36.5184C37.4375 63.0625 38.1825 62.3175 38.1825 61.3983C38.1825 60.1864 38.1825 26.439 38.1825 25.0556C38.1825 24.1365 38.9276 23.3914 39.8468 23.3914H45.0461C46.3833 23.3914 47.1745 21.8941 46.421 20.7894L41.078 12.9562" stroke="#2668E9" stroke-width="2" stroke-miterlimit="10" stroke-linecap="round" stroke-linejoin="round"/>
<path id="Vector_3" d="M57.4993 49.8694V42.6958C57.4993 42.0964 57.9852 41.6104 58.5847 41.6104H61.9756C62.8477 41.6104 63.3637 40.6339 62.8722 39.9134L54.3643 27.44C53.9334 26.8082 53.0019 26.8082 52.5709 27.44L44.0629 39.9134C43.5714 40.6338 44.0874 41.6104 44.9596 41.6104H48.3505C48.9499 41.6104 49.4359 42.0963 49.4359 42.6958V61.9772C49.4359 62.5766 49.9217 63.0626 50.5212 63.0626H56.4141C57.0134 63.0626 57.4994 62.5767 57.4994 61.9772V54.2444" stroke="#2668E9" stroke-width="2" stroke-miterlimit="10" stroke-linecap="round" stroke-linejoin="round"/>
</g>
</g>
<defs>
<clipPath id="clip0_15_155">
<rect width="64" height="64" fill="white"/>
</clipPath>
</defs>
</svg>
